:FULLY-SPECIFIED
:FORCE-ALL-JOINTS-BE-3DOF
:DEGREES
1529
root -4.45894 15.3216 20.0365 548.575 -14.8806 545.127
lfemur -39.7324 15.8515 -4.65448
ltibia 80.595 0 0
lfoot -11.8941 21.9064 0
ltoes -26.248 0 0
rfemur -34.1462 -5.712 14.8112
rtibia 61.8062 0 0
rfoot -18.535 -13.8758 0
rtoes -31.5891 0 0
lowerback 17.3152 0.731913 5.30705
upperback -1.39365 2.27274 3.83078
thorax -11.2672 0.780763 0.620135
lowerneck -4.63349 7.59632 3.87688
upperneck 1.59557 10.1469 -9.15882
head 2.07487 4.8681 -3.28872
lclavicle 1.25314e-14 2.77027e-14 0
lhumerus 9.54852 -13.6746 66.1202
lradius 77.846 0 0
lwrist 4.08745 0 0
lhand -23.5274 35.5739 0
lfingers 7.12502 0 0
lthumb -0.457522 -141.498 0
rclavicle -4.55216e-15 6.09871e-14 0
rhumerus -52.327 35.555 -91.3912
rradius 107.529 0 0
rwrist -51.7364 0 0
rhand 9.58106 -28.2355 0
rfingers 7.12502 0 0
rthumb 35.8606 -53.7322 0
1530
root -4.44989 15.3256 20.0573 548.282 -17.7309 545.098
lfemur -39.0838 16.4782 -4.30712
ltibia 81.5604 0 0
lfoot -11.9623 22.0933 0
ltoes -26.441 0 0
rfemur -33.3836 -6.04089 14.5506
rtibia 61.561 0 0
rfoot -17.8209 -13.5943 0
rtoes -30.5214 0 0
lowerback 17.2957 0.75359 5.14247
upperback -1.34161 2.26573 3.69009
thorax -11.1967 0.792535 0.557268
lowerneck -4.78933 7.05737 3.77972
upperneck 1.39921 9.40031 -8.58263
head 1.9409 4.51438 -3.10941
lclavicle 1.16329e-14 3.09468e-14 0
lhumerus 4.51321 -10.7486 68.8952
lradius 76.6964 0 0
lwrist 2.62727 0 0
lhand -23.8905 35.3576 0
lfingers 7.12502 0 0
lthumb -0.442869 -129.719 0
rclavicle -6.67916e-15 5.94764e-14 0
rhumerus -52.5813 35.2467 -91.6779
rradius 107.148 0 0
rwrist -53.3882 0 0
rhand 8.85345 -28.5063 0
rfingers 7.12502 0 0
rthumb 35.4544 -53.8928 0
1531
root -4.45661 15.3324 20.073 547.989 -20.9341 544.866
lfemur -38.4352 17.1048 -3.95976
ltibia 82.5259 0 0
lfoot -12.0306 22.2802 0
ltoes -26.6341 0 0
rfemur -32.621 -6.36979 14.29
rtibia 61.3159 0 0
rfoot -17.1068 -13.3128 0
rtoes -29.4536 0 0
lowerback 17.273 0.693686 4.87489
upperback -1.32235 2.134 3.57197
thorax -11.1691 0.751998 0.610919
lowerneck -4.842 6.508 3.44305
upperneck 1.31238 8.65902 -7.8065
head 1.80627 4.16558 -2.82061
lclavicle 1.07344e-14 3.4191e-14 0
lhumerus -0.522091 -7.82263 71.6702
lradius 75.9891 0 0
lwrist 1.1671 0 0
lhand -24.2536 35.1413 0
lfingers 7.12502 0 0
lthumb -0.428215 -117.94 0
rclavicle -8.80616e-15 5.79656e-14 0
rhumerus -52.8356 34.9384 -91.9646
rradius 106.767 0 0
rwrist -55.0401 0 0
rhand 8.12584 -28.7771 0
rfingers 7.12502 0 0
rthumb 35.0482 -54.0534 0
1532
root -4.4718 15.3435 20.0828 547.709 -24.0063 544.757
lfemur -37.7866 17.7314 -3.61239
ltibia 83.4913 0 0
lfoot -12.0988 22.4671 0
ltoes -26.8271 0 0
rfemur -31.8584 -6.69868 14.0294
rtibia 61.0708 0 0
rfoot -16.3927 -13.0313 0
rtoes -28.3858 0 0
lowerback 17.1529 0.713425 4.52244
upperback -1.30283 2.08962 3.58886
thorax -11.0912 0.759682 0.839779
lowerneck -4.90625 5.94287 3.00132
upperneck 1.34358 7.91134 -7.10161
head 1.72121 3.80688 -2.53618
lclavicle 1.19271e-14 3.35231e-14 0
lhumerus -5.5574 -4.89662 74.4452
lradius 75.2818 0 0
lwrist -0.293073 0 0
lhand -24.6167 34.925 0
lfingers 7.12502 0 0
lthumb -0.413562 -106.162 0
rclavicle -1.09332e-14 5.64548e-14 0
rhumerus -53.09 34.6302 -92.2513
rradius 106.386 0 0
rwrist -56.6919 0 0
rhand 7.39823 -29.048 0
rfingers 7.12502 0 0
rthumb 34.642 -54.214 0
1533
root -4.50539 15.3614 20.0866 547.637 -27.4267 544.433
lfemur -37.138 18.358 -3.26503
ltibia 82.1007 0 0
lfoot -12.1671 22.654 0
ltoes -27.0202 0 0
rfemur -31.0958 -7.02758 13.7688
rtibia 60.8257 0 0
rfoot -15.6786 -12.7498 0
rtoes -27.3181 0 0
lowerback 16.6943 0.592089 4.13883
upperback -1.2626 1.82717 3.55535
thorax -10.7948 0.670033 1.08814
lowerneck -4.87994 5.3698 2.62462
upperneck 1.25449 7.14636 -6.44874
head 1.59616 3.44163 -2.2851
lclavicle 1.31198e-14 3.28552e-14 0
lhumerus -10.5927 -1.97062 77.2202
lradius 74.5744 0 0
lwrist -1.75325 0 0
lhand -24.9799 34.7088 0
lfingers 7.12502 0 0
lthumb -0.398908 -94.3829 0
rclavicle -1.30601e-14 5.49441e-14 0
rhumerus -53.3443 34.3219 -92.538
rradius 106.005 0 0
rwrist -58.3438 0 0
rhand 6.67062 -29.3188 0
rfingers 7.12502 0 0
rthumb 34.2358 -54.3746 0
1534
root -4.53833 15.3792 20.0803 547.722 -30.793 544.022
lfemur -36.4678 18.0263 -3.80387
ltibia 80.7101 0 0
lfoot -12.2353 22.8409 0
ltoes -27.2132 0 0
rfemur -30.3332 -7.35648 13.5082
rtibia 60.5806 0 0
rfoot -14.9645 -12.4683 0
rtoes -26.2503 0 0
lowerback 16.1844 0.524106 3.50005
upperback -1.20955 1.59053 3.57097
thorax -10.46 0.606985 1.52519
lowerneck -4.80562 4.77477 2.3478
upperneck 0.892484 6.33753 -6.09375
head 1.39991 3.05021 -2.15324
lclavicle 1.43125e-14 3.21873e-14 0
lhumerus -10.2426 -2.7672 77.4702
lradius 73.8671 0 0
lwrist -3.21342 0 0
lhand -25.343 34.4925 0
lfingers 7.12502 0 0
lthumb -0.384255 -82.6042 0
rclavicle -1.51871e-14 5.34333e-14 0
rhumerus -53.5986 34.0136 -92.8247
rradius 105.624 0 0
rwrist -58.216 0 0
rhand 5.94301 -29.5896 0
rfingers 7.12502 0 0
rthumb 33.8296 -54.5352 0
